<svg width="1857.128955078125px" height="334.87999267578124px" xmlns="http://www.w3.org/2000/svg" viewBox="-678.5644775390625 -92.43999633789062 1857.128955078125 334.87999267578124" style="background: none;" preserveAspectRatio="xMidYMid"><defs><linearGradient id="editing-shiny-gradient" x1="0" x2="1" y1="0.5000000000000001" y2="0.4999999999999999" gradientUnits="objectBoundingBox"><stop offset="0.0" stop-color="#ffffff"></stop><stop offset="0.5" stop-color="#ffffff"></stop><stop offset="1.0" stop-color="#000000"></stop></linearGradient><linearGradient id="editing-shiny-gradient2" x1="0" x2="0" y1="0" y2="1"><stop offset="0.2" stop-color="#fff" stop-opacity="0.8"></stop><stop offset="0.8" stop-color="#fff" stop-opacity="0"></stop></linearGradient><filter id="editing-shiny2" x="-100%" y="-100%" width="300%" height="300%"><feMorphology operator="erode" radius="2"></feMorphology></filter><filter id="editing-shiny" x="-100%" y="-100%" width="300%" height="300%"><feFlood flood-color="#fff" result="flood"></feFlood><feConvolveMatrix in="SourceGraphic" result="conv" order="8,8" divisor="1" kernelMatrix="0 0 0 0 0 0 0 0 0 0 0 1 1 0 0 0 0 0 0 1 1 0 0 0 0 0 1 0 0 1 0 0 0 0 1 0 0 1 0 0 0 1 0 0 0 0 1 0 0 1 1 0 0 1 1 0 0 0 0 1 1 0 0 0 "></feConvolveMatrix><feOffset dx="0" dy="4" in="conv" result="offset"></feOffset><feComposite operator="in" in="flood" in2="offset" result="comp"></feComposite><feGaussianBlur in="offset" stdDeviation="3" result="shadow"></feGaussianBlur><feColorMatrix in="shadow" type="matrix" values="0.7 0 0 0 0  0 0.7 0 0 0  0 0 0.7 0 0  0 0 0 0.3 0" result="dark-shadow"></feColorMatrix><feOffset dx="0" dy="4" in="dark-shadow" result="offset-shadow"></feOffset><feOffset dx="0" dy="2" in="conv" result="offset-2"></feOffset><feComposite operator="out" in="offset" in2="offset-2" result="edge-diff"></feComposite><feGaussianBlur in="edge-diff" stdDeviation="1" result="edge-blur"></feGaussianBlur><feColorMatrix in="edge-blur" result="edge-shadow" type="matrix" values="0 0 0 0 0  0 0 0 0 0  0 0 0 0 0  0 0 0 0.5 0"></feColorMatrix><feComposite operator="in" in="edge-shadow" in2="offset" result="edge-shadow-in"></feComposite><feOffset dx="0" dy="1" in="edge-shadow-in" result="edge-shadow-final"></feOffset><feMerge result="out"><feMergeNode in="offset-shadow"></feMergeNode><feMergeNode in="comp"></feMergeNode><feMergeNode in="edge-shadow-final"></feMergeNode><feMergeNode in="SourceGraphic"></feMergeNode></feMerge></filter></defs><g filter="url(#editing-shiny)"><g transform="translate(-425.3665624856949, 169.50000381469727)"><path d="M42.34-132.68L42.34-132.68L42.34-132.68Q50.27-135.32 56.70-135.32L56.70-135.32L56.70-135.32Q66.53-135.32 72.01-128.43L72.01-128.43L72.01-128.43Q77.49-121.53 80.51-108.86L80.51-108.86L80.51-108.86Q81.46-105.08 84.39-92.23L84.39-92.23L84.39-92.23Q87.32-79.38 89.21-71.44L89.21-71.44L89.21-71.44Q95.07-46.68 99.89-33.08L99.89-33.08L99.89-33.08Q104.71-19.47 115.29-11.34L115.29-11.34L115.29-11.34Q113.02-5.67 107.82-2.27L107.82-2.27L107.82-2.27Q102.63 1.13 96.58 1.13L96.58 1.13L96.58 1.13Q82.78 1.13 76.36-19.66L76.36-19.66L76.36-19.66Q73.33-29.30 70.88-38.56L70.88-38.56L70.88-38.56Q64.26-36.29 54.53-36.29L54.53-36.29L54.53-36.29Q44.79-36.29 30.62-38.37L30.62-38.37L30.62-38.37Q24.76-15.50 24.76-3.97L24.76-3.97L24.76-3.97Q24.76-1.51 24.95-0.38L24.95-0.38L24.95-0.38Q22.49 0 16.63 0L16.63 0L16.63 0Q10.77 0 6.33-3.69L6.33-3.69L6.33-3.69Q1.89-7.37 1.89-14.18L1.89-14.18L1.89-14.18Q1.89-23.63 20.03-69.55L20.03-69.55L20.03-69.55Q38.18-115.48 42.34-132.68ZM34.97-54.24L34.97-54.24L34.97-54.24Q42.52-53.30 50.37-53.30L50.37-53.30L50.37-53.30Q58.21-53.30 67.09-55.00L67.09-55.00L67.09-55.00Q65.39-62.75 55.57-114.34L55.57-114.34L55.57-114.34Q43.85-83.92 34.97-54.24ZM128.14-139.48L128.14-139.48L128.14-139.48Q134.19-141.75 140.62-141.75L140.62-141.75L140.62-141.75Q147.04-141.75 151.29-137.50L151.29-137.50L151.29-137.50Q155.55-133.25 155.55-125.97L155.55-125.97L155.55-125.97Q155.55-118.69 153.56-96.86L153.56-96.86L153.56-96.86Q151.58-75.03 151.58-62.56L151.58-62.56L151.58-62.56Q151.58-31.75 155.93-2.27L155.93-2.27L155.93-2.27Q149.88 0 143.07 0L143.07 0L143.07 0Q128.52 0 128.52-14.18L128.52-14.18L128.52-14.18Q128.52-20.98 130.60-40.92L130.60-40.92L130.60-40.92Q132.68-60.86 132.68-72.95L132.68-72.95L132.68-72.95Q132.68-113.21 128.14-139.48ZM178.98-31.37L178.98-31.37L180.87-58.59L180.87-58.59Q180.87-76.92 175.58-93.37L175.58-93.37L175.58-93.37Q180.87-95.63 188.62-95.63L188.62-95.63L188.62-95.63Q203.74-95.63 203.74-78.81L203.74-78.81L203.74-78.81Q203.74-71.25 201.66-57.46L201.66-57.46L201.66-57.46Q199.58-43.66 199.58-38.46L199.58-38.46L199.58-38.46Q199.58-33.26 199.77-30.90L199.77-30.90L199.77-30.90Q199.96-28.54 200.72-25.33L200.72-25.33L200.72-25.33Q201.85-18.90 208.18-18.90L208.18-18.90L208.18-18.90Q214.51-18.90 221.79-29.01L221.79-29.01L221.79-29.01Q229.07-39.12 233.51-51.41L233.51-51.41L233.51-51.41Q237.95-63.69 237.95-70.88L237.95-70.88L237.95-70.88Q237.01-85.81 234.74-93.37L234.74-93.37L234.74-93.37Q240.79-95.63 247.12-95.63L247.12-95.63L247.12-95.63Q253.45-95.63 257.70-91.67L257.70-91.67L257.70-91.67Q261.95-87.70 261.95-81.08L261.95-81.08L261.95-81.08Q261.95 22.11 224.15 42.71L224.15 42.71L224.15 42.71Q215.65 47.25 204.88 47.25L204.88 47.25L204.88 47.25Q194.10 47.25 186.07 41.58L186.07 41.58L186.07 41.58Q178.04 35.91 178.04 25.70L178.04 25.70L178.04 25.70Q178.04 18.90 183.14 14.27L183.14 14.27L183.14 14.27Q188.24 9.64 195.24 9.64L195.24 9.64L195.24 9.64Q196.75 9.64 199.02 10.02L199.02 10.02L199.02 10.02Q198.45 12.47 198.45 14.36L198.45 14.36L198.45 14.36Q198.45 31.00 209.98 31.00L209.98 31.00L209.98 31.00Q216.97 31.00 222.64 23.44L222.64 23.44L222.64 23.44Q228.31 15.88 231.71 4.91L231.71 4.91L231.71 4.91Q238.33-17.39 238.33-35.53L238.33-35.53L238.33-35.53Q232.66-20.22 222.93-10.87L222.93-10.87L222.93-10.87Q213.19-1.51 201.85-1.51L201.85-1.51L201.85-1.51Q178.98-1.51 178.98-31.37ZM315.63 2.27L315.63 2.27L315.63 2.27Q294.84 2.27 285.01-9.92L285.01-9.92L285.01-9.92Q275.18-22.11 275.18-43.94L275.18-43.94L275.18-43.94Q275.18-65.77 288.23-81.84L288.23-81.84L288.23-81.84Q301.27-97.90 321.68-97.90L321.68-97.90L321.68-97.90Q363.64-97.90 363.64-50.65L363.64-50.65L363.64-50.65Q363.64-28.54 350.03-13.14L350.03-13.14L350.03-13.14Q336.42 2.27 315.63 2.27ZM302.02-77.11L302.02-77.11L302.02-77.11Q298.62-66.15 298.62-55.19L298.62-55.19L298.62-55.19Q298.62-44.23 299.38-38.18L299.38-38.18L299.38-38.18Q300.13-32.13 302.21-26.08L302.21-26.08L302.21-26.08Q306.56-13.80 319.32-13.80L319.32-13.80L319.32-13.80Q332.07-13.80 336.14-20.60L336.14-20.60L336.14-20.60Q340.20-27.41 340.20-41.58L340.20-41.58L340.20-41.58Q340.20-81.84 321.11-81.84L321.11-81.84L321.11-81.84Q310.15-81.84 302.02-77.11ZM395.39-34.40L395.39-34.40L395.39-34.40Q394.82-31.75 394.82-30.05L394.82-30.05L394.82-30.05Q394.82-22.30 399.45-18.14L399.45-18.14L399.45-18.14Q404.08-13.99 411.93-13.99L411.93-13.99L411.93-13.99Q419.77-13.99 424.97-16.92L424.97-16.92L424.97-16.92Q430.16-19.84 430.16-25.70L430.16-25.70L430.16-25.70Q430.16-31.56 424.59-35.06L424.59-35.06L424.59-35.06Q419.01-38.56 411.17-40.63L411.17-40.63L411.17-40.63Q403.33-42.71 395.39-45.27L395.39-45.27L395.39-45.27Q387.45-47.82 381.87-53.30L381.87-53.30L381.87-53.30Q376.30-58.78 376.30-67.09L376.30-67.09L376.30-67.09Q376.30-80.14 390.10-89.02L390.10-89.02L390.10-89.02Q403.89-97.90 419.01-97.90L419.01-97.90L419.01-97.90Q435.64-97.90 444.34-91.10L444.34-91.10L444.34-91.10Q449.44-87.13 449.44-80.61L449.44-80.61L449.44-80.61Q449.44-74.09 444.43-70.02L444.43-70.02L444.43-70.02Q439.42-65.96 432.24-65.96L432.24-65.96L432.24-65.96Q430.73-65.96 428.46-66.34L428.46-66.34L428.46-66.34Q429.03-68.80 429.03-70.69L429.03-70.69L429.03-70.69Q429.03-76.17 424.87-79.00L424.87-79.00L424.87-79.00Q420.71-81.84 413.63-81.84L413.63-81.84L413.63-81.84Q406.54-81.84 400.68-79.00L400.68-79.00L400.68-79.00Q398.41-75.98 398.41-71.25L398.41-71.25L398.41-71.25Q398.41-66.53 403.89-63.60L403.89-63.60L403.89-63.60Q409.37-60.67 417.22-58.50L417.22-58.50L417.22-58.50Q425.06-56.32 433.00-53.58L433.00-53.58L433.00-53.58Q440.94-50.84 446.42-45.08L446.42-45.08L446.42-45.08Q451.90-39.31 451.90-30.62L451.90-30.62L451.90-30.62Q451.90-16.44 437.82-7.09L437.82-7.09L437.82-7.09Q423.74 2.27 408.81 2.27L408.81 2.27L408.81 2.27Q393.88 2.27 384.14-3.12L384.14-3.12L384.14-3.12Q374.41-8.51 374.41-19.47L374.41-19.47L374.41-19.47Q374.41-26.27 379.42-30.52L379.42-30.52L379.42-30.52Q384.43-34.78 391.61-34.78L391.61-34.78L391.61-34.78Q393.12-34.78 395.39-34.40ZM551.88-76.36L551.88-76.36L549.99-34.78L549.99-34.78Q549.99-18.14 555.47-1.13L555.47-1.13L555.47-1.13Q549.61 1.13 543.56 1.13L543.56 1.13L543.56 1.13Q527.12 1.13 527.12-16.25L527.12-16.25L527.12-16.25Q527.12-29.11 529.39-46.49L529.39-46.49L529.39-46.49Q531.66-63.88 531.66-67.85L531.66-67.85L531.66-67.85Q531.66-77.68 522.77-77.68L522.77-77.68L522.77-77.68Q513.32-77.68 501.79-60.01L501.79-60.01L501.79-60.01Q490.27-42.34 488.56-30.43L488.56-30.43L488.56-30.43Q488.94-24.95 492.34-2.27L492.34-2.27L492.34-2.27Q486.49 0 479.49 0L479.49 0L479.49 0Q464.94 0 464.94-14.18L464.94-14.18L464.94-14.18Q464.94-20.98 467.02-40.92L467.02-40.92L467.02-40.92Q469.10-60.86 469.10-72.95L469.10-72.95L469.10-72.95Q469.10-113.21 464.56-139.48L464.56-139.48L464.56-139.48Q470.61-141.75 477.04-141.75L477.04-141.75L477.04-141.75Q483.46-141.75 487.71-137.50L487.71-137.50L487.71-137.50Q491.97-133.25 491.97-125.87L491.97-125.87L491.97-125.87Q491.97-118.50 489.98-95.45L489.98-95.45L489.98-95.45Q488.00-72.39 488.00-59.54L488.00-59.54L488.00-59.54Q494.61-73.52 507.37-85.14L507.37-85.14L507.37-85.14Q520.13-96.77 532.79-96.77L532.79-96.77L532.79-96.77Q551.88-96.77 551.88-76.36ZM661.12-89.02L661.12-89.02L661.12-89.02Q656.02-67.28 656.02-45.45L656.02-45.45L656.02-45.45Q656.02-23.63 660.93-2.27L660.93-2.27L660.93-2.27Q654.13 0 646.95 0L646.95 0L646.95 0Q639.76 0 636.93-4.25L636.93-4.25L636.93-4.25Q634.09-8.51 634.09-16.54L634.09-16.54L634.09-16.54Q634.09-24.57 636.55-38.56L636.55-38.56L636.55-38.56Q623.13-9.83 610.66-2.27L610.66-2.27L610.66-2.27Q604.99 1.13 598.94 1.13L598.94 1.13L598.94 1.13Q584.58 1.13 576.64-9.54L576.64-9.54L576.64-9.54Q568.70-20.22 568.70-36.10L568.70-36.10L568.70-36.10Q568.70-60.29 582.12-78.53L582.12-78.53L582.12-78.53Q595.54-96.77 616.99-96.77L616.99-96.77L616.99-96.77Q638.44-96.77 661.12-89.02ZM636.36-77.68L636.36-77.68L636.36-77.68Q626.35-80.70 619.35-80.70L619.35-80.70L619.35-80.70Q605.18-80.70 598.18-74.47L598.18-74.47L598.18-74.47Q591.76-58.59 591.76-42.15L591.76-42.15L591.76-42.15Q591.76-33.45 594.50-24.57L594.50-24.57L594.50-24.57Q597.24-15.69 602.91-15.69L602.91-15.69L602.91-15.69Q609.52-15.69 619.92-35.15L619.92-35.15L619.92-35.15Q630.31-54.62 636.36-77.68ZM763.56-132.68L763.56-132.68L763.56-132.68Q771.50-135.32 777.92-135.32L777.92-135.32L777.92-135.32Q787.75-135.32 793.23-128.43L793.23-128.43L793.23-128.43Q798.71-121.53 801.74-108.86L801.74-108.86L801.74-108.86Q802.68-105.08 805.61-92.23L805.61-92.23L805.61-92.23Q808.54-79.38 810.43-71.44L810.43-71.44L810.43-71.44Q816.29-46.68 821.11-33.08L821.11-33.08L821.11-33.08Q825.93-19.47 836.51-11.34L836.51-11.34L836.51-11.34Q834.25-5.67 829.05-2.27L829.05-2.27L829.05-2.27Q823.85 1.13 817.80 1.13L817.80 1.13L817.80 1.13Q804.01 1.13 797.58-19.66L797.58-19.66L797.58-19.66Q794.56-29.30 792.10-38.56L792.10-38.56L792.10-38.56Q785.48-36.29 775.75-36.29L775.75-36.29L775.75-36.29Q766.02-36.29 751.84-38.37L751.84-38.37L751.84-38.37Q745.98-15.50 745.98-3.97L745.98-3.97L745.98-3.97Q745.98-1.51 746.17-0.38L746.17-0.38L746.17-0.38Q743.71 0 737.86 0L737.86 0L737.86 0Q732.00 0 727.56-3.69L727.56-3.69L727.56-3.69Q723.11-7.37 723.11-14.18L723.11-14.18L723.11-14.18Q723.11-23.63 741.26-69.55L741.26-69.55L741.26-69.55Q759.40-115.48 763.56-132.68ZM756.19-54.24L756.19-54.24L756.19-54.24Q763.75-53.30 771.59-53.30L771.59-53.30L771.59-53.30Q779.44-53.30 788.32-55.00L788.32-55.00L788.32-55.00Q786.62-62.75 776.79-114.34L776.79-114.34L776.79-114.34Q765.07-83.92 756.19-54.24ZM911.55-77.68L911.55-77.68L911.55-77.68Q901.53-80.70 891.70-80.70L891.70-80.70L891.70-80.70Q881.87-80.70 873.18-74.84L873.18-74.84L873.18-74.84Q866.38-61.24 866.38-45.93L866.38-45.93L866.38-45.93Q866.38-37.04 868.83-28.63L868.83-28.63L868.83-28.63Q871.29-20.22 876.96-20.22L876.96-20.22L876.96-20.22Q883.39-20.22 894.16-38.56L894.16-38.56L894.16-38.56Q904.93-56.89 911.55-77.68ZM883.20 31.00L883.20 31.00L883.20 31.00Q895.29 31.00 902.10 22.68L902.10 22.68L902.10 22.68Q908.90 14.36 908.90 1.32L908.90 1.32L908.90 1.32Q908.90-5.10 908.05-17.39L908.05-17.39L908.05-17.39Q907.20-29.67 907.01-34.78L907.01-34.78L907.01-34.78Q893.59-11.34 883.57-6.05L883.57-6.05L883.57-6.05Q878.47-3.40 872.80-3.40L872.80-3.40L872.80-3.40Q858.63-3.40 850.88-14.55L850.88-14.55L850.88-14.55Q843.13-25.70 843.13-41.77L843.13-41.77L843.13-41.77Q843.13-63.69 856.83-80.23L856.83-80.23L856.83-80.23Q870.53-96.77 891.61-96.77L891.61-96.77L891.61-96.77Q912.68-96.77 934.23-89.40L934.23-89.40L934.23-89.40Q928.56-69.17 928.56-49.71L928.56-49.71L928.56-49.71Q928.56-40.45 929.88-26.74L929.88-26.74L929.88-26.74Q931.20-13.04 931.20-6.43L931.20-6.43L931.20-6.43Q931.20 16.82 916.46 32.04L916.46 32.04L916.46 32.04Q901.72 47.25 878.66 47.25L878.66 47.25L878.66 47.25Q865.05 47.25 855.32 42.05L855.32 42.05L855.32 42.05Q845.59 36.85 845.59 25.89L845.59 25.89L845.59 25.89Q845.59 19.09 850.69 14.36L850.69 14.36L850.69 14.36Q855.79 9.64 862.78 9.64L862.78 9.64L862.78 9.64Q864.30 9.64 866.56 10.02L866.56 10.02L866.56 10.02Q866.00 12.47 866.00 14.36L866.00 14.36L866.00 14.36Q866.00 21.17 871.10 26.08L871.10 26.08L871.10 26.08Q876.20 31.00 883.20 31.00ZM1037.99-89.02L1037.99-89.02L1037.99-89.02Q1032.88-67.28 1032.88-45.45L1032.88-45.45L1032.88-45.45Q1032.88-23.63 1037.80-2.27L1037.80-2.27L1037.80-2.27Q1030.99 0 1023.81 0L1023.81 0L1023.81 0Q1016.63 0 1013.80-4.25L1013.80-4.25L1013.80-4.25Q1010.96-8.51 1010.96-16.54L1010.96-16.54L1010.96-16.54Q1010.96-24.57 1013.42-38.56L1013.42-38.56L1013.42-38.56Q1000.00-9.83 987.52-2.27L987.52-2.27L987.52-2.27Q981.85 1.13 975.81 1.13L975.81 1.13L975.81 1.13Q961.44 1.13 953.50-9.54L953.50-9.54L953.50-9.54Q945.57-20.22 945.57-36.10L945.57-36.10L945.57-36.10Q945.57-60.29 958.99-78.53L958.99-78.53L958.99-78.53Q972.40-96.77 993.86-96.77L993.86-96.77L993.86-96.77Q1015.31-96.77 1037.99-89.02ZM1013.23-77.68L1013.23-77.68L1013.23-77.68Q1003.21-80.70 996.22-80.70L996.22-80.70L996.22-80.70Q982.04-80.70 975.05-74.47L975.05-74.47L975.05-74.47Q968.62-58.59 968.62-42.15L968.62-42.15L968.62-42.15Q968.62-33.45 971.37-24.57L971.37-24.57L971.37-24.57Q974.11-15.69 979.78-15.69L979.78-15.69L979.78-15.69Q986.39-15.69 996.79-35.15L996.79-35.15L996.79-35.15Q1007.18-54.62 1013.23-77.68ZM1079.00-18.52L1079.00-18.52L1079.00-18.52Q1086.75-15.69 1096.96-15.69L1096.96-15.69L1096.96-15.69Q1107.16-15.69 1114.91-19.66L1114.91-19.66L1114.91-19.66Q1124.17-35.53 1124.17-57.74L1124.17-57.74L1124.17-57.74Q1124.17-79.95 1116.42-79.95L1116.42-79.95L1116.42-79.95Q1106.78-79.95 1094.78-60.48L1094.78-60.48L1094.78-60.48Q1082.78-41.01 1079.00-18.52ZM1079.00-57.27L1079.00-57.27L1079.00-57.27Q1099.03-96.77 1123.42-96.77L1123.42-96.77L1123.42-96.77Q1136.27-96.77 1141.84-86.28L1141.84-86.28L1141.84-86.28Q1147.42-75.79 1147.42-59.72L1147.42-59.72L1147.42-59.72Q1147.42-36.67 1133.81-17.77L1133.81-17.77L1133.81-17.77Q1120.20 1.13 1099.60 1.13L1099.60 1.13L1099.60 1.13Q1087.88 1.13 1078.24-2.65L1078.24-2.65L1078.24-2.65Q1078.62 23.25 1081.46 44.79L1081.46 44.79L1081.46 44.79Q1075.41 47.06 1068.98 47.06L1068.98 47.06L1068.98 47.06Q1062.56 47.06 1058.40 42.81L1058.40 42.81L1058.40 42.81Q1054.24 38.56 1054.24 29.86L1054.24 29.86L1054.24 29.86Q1054.24 21.17 1056.51 0.19L1056.51 0.19L1056.51 0.19Q1058.78-20.79 1058.78-32.70L1058.78-32.70L1058.78-32.70Q1058.78-72.01 1054.62-93.37L1054.62-93.37L1054.62-93.37Q1060.67-95.63 1067.38-95.63L1067.38-95.63L1067.38-95.63Q1074.09-95.63 1077.77-91.76L1077.77-91.76L1077.77-91.76Q1081.46-87.89 1081.46-79.66L1081.46-79.66L1081.46-79.66Q1081.46-71.44 1079.00-57.27ZM1197.32 2.27L1197.32 2.27L1197.32 2.27Q1176.52 2.27 1166.70-9.92L1166.70-9.92L1166.70-9.92Q1156.87-22.11 1156.87-43.94L1156.87-43.94L1156.87-43.94Q1156.87-65.77 1169.91-81.84L1169.91-81.84L1169.91-81.84Q1182.95-97.90 1203.36-97.90L1203.36-97.90L1203.36-97.90Q1245.32-97.90 1245.32-50.65L1245.32-50.65L1245.32-50.65Q1245.32-28.54 1231.71-13.14L1231.71-13.14L1231.71-13.14Q1218.11 2.27 1197.32 2.27ZM1183.71-77.11L1183.71-77.11L1183.71-77.11Q1180.30-66.15 1180.30-55.19L1180.30-55.19L1180.30-55.19Q1180.30-44.23 1181.06-38.18L1181.06-38.18L1181.06-38.18Q1181.82-32.13 1183.90-26.08L1183.90-26.08L1183.90-26.08Q1188.24-13.80 1201.00-13.80L1201.00-13.80L1201.00-13.80Q1213.76-13.80 1217.82-20.60L1217.82-20.60L1217.82-20.60Q1221.88-27.41 1221.88-41.58L1221.88-41.58L1221.88-41.58Q1221.88-81.84 1202.80-81.84L1202.80-81.84L1202.80-81.84Q1191.83-81.84 1183.71-77.11ZM1334.15-29.96L1334.15-29.96L1334.15-29.96Q1327.54-17.01 1317.52-7.94L1317.52-7.94L1317.52-7.94Q1307.50 1.13 1297.48 1.13L1297.48 1.13L1297.48 1.13Q1287.47 1.13 1282.08-5.76L1282.08-5.76L1282.08-5.76Q1276.69-12.66 1274.43-23.53L1274.43-23.53L1274.43-23.53Q1272.16-34.40 1270.36-45.93L1270.36-45.93L1270.36-45.93Q1268.57-57.46 1264.22-68.42L1264.22-68.42L1264.22-68.42Q1259.87-79.38 1252.31-84.86L1252.31-84.86L1252.31-84.86Q1254.77-89.40 1259.68-92.52L1259.68-92.52L1259.68-92.52Q1264.60-95.63 1270.27-95.63L1270.27-95.63L1270.27-95.63Q1279.15-95.63 1284.63-84.20L1284.63-84.20L1284.63-84.20Q1290.11-72.77 1291.72-58.97L1291.72-58.97L1291.72-58.97Q1293.33-45.17 1295.31-32.22L1295.31-32.22L1295.31-32.22Q1297.30-19.28 1299.94-17.39L1299.94-17.39L1299.94-17.39Q1306.37-17.77 1311.19-25.61L1311.19-25.61L1311.19-25.61Q1316.01-33.45 1318.28-44.60L1318.28-44.60L1318.28-44.60Q1322.43-65.02 1322.43-76.55L1322.43-76.55L1322.43-76.55Q1322.43-88.07 1321.30-94.31L1321.30-94.31L1321.30-94.31Q1327.91-95.63 1332.64-95.63L1332.64-95.63L1332.64-95.63Q1348.89-95.63 1348.89-80.14L1348.89-80.14L1348.89-80.14Q1348.89-70.31 1344.83-56.61L1344.83-56.61L1344.83-56.61Q1340.77-42.90 1334.15-29.96Z" fill="url(#editing-shiny-gradient)"></path></g></g><g filter="url(#editing-shiny2)"><g transform="translate(-425.3899999856949, 169.5)"><path d="M42.34-132.68L42.34-132.68L42.34-132.68Q50.27-135.32 56.70-135.32L56.70-135.32L56.70-135.32Q66.53-135.32 72.01-128.43L72.01-128.43L72.01-128.43Q77.49-121.53 80.51-108.86L80.51-108.86L80.51-108.86Q81.46-105.08 84.39-92.23L84.39-92.23L84.39-92.23Q87.32-79.38 89.21-71.44L89.21-71.44L89.21-71.44Q95.07-46.68 99.89-33.08L99.89-33.08L99.89-33.08Q104.71-19.47 115.29-11.34L115.29-11.34L115.29-11.34Q113.02-5.67 107.82-2.27L107.82-2.27L107.82-2.27Q102.63 1.13 96.58 1.13L96.58 1.13L96.58 1.13Q82.78 1.13 76.36-19.66L76.36-19.66L76.36-19.66Q73.33-29.30 70.88-38.56L70.88-38.56L70.88-38.56Q64.26-36.29 54.53-36.29L54.53-36.29L54.53-36.29Q44.79-36.29 30.62-38.37L30.62-38.37L30.62-38.37Q24.76-15.50 24.76-3.97L24.76-3.97L24.76-3.97Q24.76-1.51 24.95-0.38L24.95-0.38L24.95-0.38Q22.49 0 16.63 0L16.63 0L16.63 0Q10.77 0 6.33-3.69L6.33-3.69L6.33-3.69Q1.89-7.37 1.89-14.18L1.89-14.18L1.89-14.18Q1.89-23.63 20.03-69.55L20.03-69.55L20.03-69.55Q38.18-115.48 42.34-132.68ZM34.97-54.24L34.97-54.24L34.97-54.24Q42.52-53.30 50.37-53.30L50.37-53.30L50.37-53.30Q58.21-53.30 67.09-55.00L67.09-55.00L67.09-55.00Q65.39-62.75 55.57-114.34L55.57-114.34L55.57-114.34Q43.85-83.92 34.97-54.24ZM128.14-139.48L128.14-139.48L128.14-139.48Q134.19-141.75 140.62-141.75L140.62-141.75L140.62-141.75Q147.04-141.75 151.29-137.50L151.29-137.50L151.29-137.50Q155.55-133.25 155.55-125.97L155.55-125.97L155.55-125.97Q155.55-118.69 153.56-96.86L153.56-96.86L153.56-96.86Q151.58-75.03 151.58-62.56L151.58-62.56L151.58-62.56Q151.58-31.75 155.93-2.27L155.93-2.27L155.93-2.27Q149.88 0 143.07 0L143.07 0L143.07 0Q128.52 0 128.52-14.18L128.52-14.18L128.52-14.18Q128.52-20.98 130.60-40.92L130.60-40.92L130.60-40.92Q132.68-60.86 132.68-72.95L132.68-72.95L132.68-72.95Q132.68-113.21 128.14-139.48ZM178.98-31.37L178.98-31.37L180.87-58.59L180.87-58.59Q180.87-76.92 175.58-93.37L175.58-93.37L175.58-93.37Q180.87-95.63 188.62-95.63L188.62-95.63L188.62-95.63Q203.74-95.63 203.74-78.81L203.74-78.81L203.74-78.81Q203.74-71.25 201.66-57.46L201.66-57.46L201.66-57.46Q199.58-43.66 199.58-38.46L199.58-38.46L199.58-38.46Q199.58-33.26 199.77-30.90L199.77-30.90L199.77-30.90Q199.96-28.54 200.72-25.33L200.72-25.33L200.72-25.33Q201.85-18.90 208.18-18.90L208.18-18.90L208.18-18.90Q214.51-18.90 221.79-29.01L221.79-29.01L221.79-29.01Q229.07-39.12 233.51-51.41L233.51-51.41L233.51-51.41Q237.95-63.69 237.95-70.88L237.95-70.88L237.95-70.88Q237.01-85.81 234.74-93.37L234.74-93.37L234.74-93.37Q240.79-95.63 247.12-95.63L247.12-95.63L247.12-95.63Q253.45-95.63 257.70-91.67L257.70-91.67L257.70-91.67Q261.95-87.70 261.95-81.08L261.95-81.08L261.95-81.08Q261.95 22.11 224.15 42.71L224.15 42.71L224.15 42.71Q215.65 47.25 204.88 47.25L204.88 47.25L204.88 47.25Q194.10 47.25 186.07 41.58L186.07 41.58L186.07 41.58Q178.04 35.91 178.04 25.70L178.04 25.70L178.04 25.70Q178.04 18.90 183.14 14.27L183.14 14.27L183.14 14.27Q188.24 9.64 195.24 9.64L195.24 9.64L195.24 9.64Q196.75 9.64 199.02 10.02L199.02 10.02L199.02 10.02Q198.45 12.47 198.45 14.36L198.45 14.36L198.45 14.36Q198.45 31.00 209.98 31.00L209.98 31.00L209.98 31.00Q216.97 31.00 222.64 23.44L222.64 23.44L222.64 23.44Q228.31 15.88 231.71 4.91L231.71 4.91L231.71 4.91Q238.33-17.39 238.33-35.53L238.33-35.53L238.33-35.53Q232.66-20.22 222.93-10.87L222.93-10.87L222.93-10.87Q213.19-1.51 201.85-1.51L201.85-1.51L201.85-1.51Q178.98-1.51 178.98-31.37ZM315.63 2.27L315.63 2.27L315.63 2.27Q294.84 2.27 285.01-9.92L285.01-9.92L285.01-9.92Q275.18-22.11 275.18-43.94L275.18-43.94L275.18-43.94Q275.18-65.77 288.23-81.84L288.23-81.84L288.23-81.84Q301.27-97.90 321.68-97.90L321.68-97.90L321.68-97.90Q363.64-97.90 363.64-50.65L363.64-50.65L363.64-50.65Q363.64-28.54 350.03-13.14L350.03-13.14L350.03-13.14Q336.42 2.27 315.63 2.27ZM302.02-77.11L302.02-77.11L302.02-77.11Q298.62-66.15 298.62-55.19L298.62-55.19L298.62-55.19Q298.62-44.23 299.38-38.18L299.38-38.18L299.38-38.18Q300.13-32.13 302.21-26.08L302.21-26.08L302.21-26.08Q306.56-13.80 319.32-13.80L319.32-13.80L319.32-13.80Q332.07-13.80 336.14-20.60L336.14-20.60L336.14-20.60Q340.20-27.41 340.20-41.58L340.20-41.58L340.20-41.58Q340.20-81.84 321.11-81.84L321.11-81.84L321.11-81.84Q310.15-81.84 302.02-77.11ZM395.39-34.40L395.39-34.40L395.39-34.40Q394.82-31.75 394.82-30.05L394.82-30.05L394.82-30.05Q394.82-22.30 399.45-18.14L399.45-18.14L399.45-18.14Q404.08-13.99 411.93-13.99L411.93-13.99L411.93-13.99Q419.77-13.99 424.97-16.92L424.97-16.92L424.97-16.92Q430.16-19.84 430.16-25.70L430.16-25.70L430.16-25.70Q430.16-31.56 424.59-35.06L424.59-35.06L424.59-35.06Q419.01-38.56 411.17-40.63L411.17-40.63L411.17-40.63Q403.33-42.71 395.39-45.27L395.39-45.27L395.39-45.27Q387.45-47.82 381.87-53.30L381.87-53.30L381.87-53.30Q376.30-58.78 376.30-67.09L376.30-67.09L376.30-67.09Q376.30-80.14 390.10-89.02L390.10-89.02L390.10-89.02Q403.89-97.90 419.01-97.90L419.01-97.90L419.01-97.90Q435.64-97.90 444.34-91.10L444.34-91.10L444.34-91.10Q449.44-87.13 449.44-80.61L449.44-80.61L449.44-80.61Q449.44-74.09 444.43-70.02L444.43-70.02L444.43-70.02Q439.42-65.96 432.24-65.96L432.24-65.96L432.24-65.96Q430.73-65.96 428.46-66.34L428.46-66.34L428.46-66.34Q429.03-68.80 429.03-70.69L429.03-70.69L429.03-70.69Q429.03-76.17 424.87-79.00L424.87-79.00L424.87-79.00Q420.71-81.84 413.63-81.84L413.63-81.84L413.63-81.84Q406.54-81.84 400.68-79.00L400.68-79.00L400.68-79.00Q398.41-75.98 398.41-71.25L398.41-71.25L398.41-71.25Q398.41-66.53 403.89-63.60L403.89-63.60L403.89-63.60Q409.37-60.67 417.22-58.50L417.22-58.50L417.22-58.50Q425.06-56.32 433.00-53.58L433.00-53.58L433.00-53.58Q440.94-50.84 446.42-45.08L446.42-45.08L446.42-45.08Q451.90-39.31 451.90-30.62L451.90-30.62L451.90-30.62Q451.90-16.44 437.82-7.09L437.82-7.09L437.82-7.09Q423.74 2.27 408.81 2.27L408.81 2.27L408.81 2.27Q393.88 2.27 384.14-3.12L384.14-3.12L384.14-3.12Q374.41-8.51 374.41-19.47L374.41-19.47L374.41-19.47Q374.41-26.27 379.42-30.52L379.42-30.52L379.42-30.52Q384.43-34.78 391.61-34.78L391.61-34.78L391.61-34.78Q393.12-34.78 395.39-34.40ZM551.88-76.36L551.88-76.36L549.99-34.78L549.99-34.78Q549.99-18.14 555.47-1.13L555.47-1.13L555.47-1.13Q549.61 1.13 543.56 1.13L543.56 1.13L543.56 1.13Q527.12 1.13 527.12-16.25L527.12-16.25L527.12-16.25Q527.12-29.11 529.39-46.49L529.39-46.49L529.39-46.49Q531.66-63.88 531.66-67.85L531.66-67.85L531.66-67.85Q531.66-77.68 522.77-77.68L522.77-77.68L522.77-77.68Q513.32-77.68 501.79-60.01L501.79-60.01L501.79-60.01Q490.27-42.34 488.56-30.43L488.56-30.43L488.56-30.43Q488.94-24.95 492.34-2.27L492.34-2.27L492.34-2.27Q486.49 0 479.49 0L479.49 0L479.49 0Q464.94 0 464.94-14.18L464.94-14.18L464.94-14.18Q464.94-20.98 467.02-40.92L467.02-40.92L467.02-40.92Q469.10-60.86 469.10-72.95L469.10-72.95L469.10-72.95Q469.10-113.21 464.56-139.48L464.56-139.48L464.56-139.48Q470.61-141.75 477.04-141.75L477.04-141.75L477.04-141.75Q483.46-141.75 487.71-137.50L487.71-137.50L487.71-137.50Q491.97-133.25 491.97-125.87L491.97-125.87L491.97-125.87Q491.97-118.50 489.98-95.45L489.98-95.45L489.98-95.45Q488.00-72.39 488.00-59.54L488.00-59.54L488.00-59.54Q494.61-73.52 507.37-85.14L507.37-85.14L507.37-85.14Q520.13-96.77 532.79-96.77L532.79-96.77L532.79-96.77Q551.88-96.77 551.88-76.36ZM661.12-89.02L661.12-89.02L661.12-89.02Q656.02-67.28 656.02-45.45L656.02-45.45L656.02-45.45Q656.02-23.63 660.93-2.27L660.93-2.27L660.93-2.27Q654.13 0 646.95 0L646.95 0L646.95 0Q639.76 0 636.93-4.25L636.93-4.25L636.93-4.25Q634.09-8.51 634.09-16.54L634.09-16.54L634.09-16.54Q634.09-24.57 636.55-38.56L636.55-38.56L636.55-38.56Q623.13-9.83 610.66-2.27L610.66-2.27L610.66-2.27Q604.99 1.13 598.94 1.13L598.94 1.13L598.94 1.13Q584.58 1.13 576.64-9.54L576.64-9.54L576.64-9.54Q568.70-20.22 568.70-36.10L568.70-36.10L568.70-36.10Q568.70-60.29 582.12-78.53L582.12-78.53L582.12-78.53Q595.54-96.77 616.99-96.77L616.99-96.77L616.99-96.77Q638.44-96.77 661.12-89.02ZM636.36-77.68L636.36-77.68L636.36-77.68Q626.35-80.70 619.35-80.70L619.35-80.70L619.35-80.70Q605.18-80.70 598.18-74.47L598.18-74.47L598.18-74.47Q591.76-58.59 591.76-42.15L591.76-42.15L591.76-42.15Q591.76-33.45 594.50-24.57L594.50-24.57L594.50-24.57Q597.24-15.69 602.91-15.69L602.91-15.69L602.91-15.69Q609.52-15.69 619.92-35.15L619.92-35.15L619.92-35.15Q630.31-54.62 636.36-77.68ZM763.56-132.68L763.56-132.68L763.56-132.68Q771.50-135.32 777.92-135.32L777.92-135.32L777.92-135.32Q787.75-135.32 793.23-128.43L793.23-128.43L793.23-128.43Q798.71-121.53 801.74-108.86L801.74-108.86L801.74-108.86Q802.68-105.08 805.61-92.23L805.61-92.23L805.61-92.23Q808.54-79.38 810.43-71.44L810.43-71.44L810.43-71.44Q816.29-46.68 821.11-33.08L821.11-33.08L821.11-33.08Q825.93-19.47 836.51-11.34L836.51-11.34L836.51-11.34Q834.25-5.67 829.05-2.27L829.05-2.27L829.05-2.27Q823.85 1.13 817.80 1.13L817.80 1.13L817.80 1.13Q804.01 1.13 797.58-19.66L797.58-19.66L797.58-19.66Q794.56-29.30 792.10-38.56L792.10-38.56L792.10-38.56Q785.48-36.29 775.75-36.29L775.75-36.29L775.75-36.29Q766.02-36.29 751.84-38.37L751.84-38.37L751.84-38.37Q745.98-15.50 745.98-3.97L745.98-3.97L745.98-3.97Q745.98-1.51 746.17-0.38L746.17-0.38L746.17-0.38Q743.71 0 737.86 0L737.86 0L737.86 0Q732.00 0 727.56-3.69L727.56-3.69L727.56-3.69Q723.11-7.37 723.11-14.18L723.11-14.18L723.11-14.18Q723.11-23.63 741.26-69.55L741.26-69.55L741.26-69.55Q759.40-115.48 763.56-132.68ZM756.19-54.24L756.19-54.24L756.19-54.24Q763.75-53.30 771.59-53.30L771.59-53.30L771.59-53.30Q779.44-53.30 788.32-55.00L788.32-55.00L788.32-55.00Q786.62-62.75 776.79-114.34L776.79-114.34L776.79-114.34Q765.07-83.92 756.19-54.24ZM911.55-77.68L911.55-77.68L911.55-77.68Q901.53-80.70 891.70-80.70L891.70-80.70L891.70-80.70Q881.87-80.70 873.18-74.84L873.18-74.84L873.18-74.84Q866.38-61.24 866.38-45.93L866.38-45.93L866.38-45.93Q866.38-37.04 868.83-28.63L868.83-28.63L868.83-28.63Q871.29-20.22 876.96-20.22L876.96-20.22L876.96-20.22Q883.39-20.22 894.16-38.56L894.16-38.56L894.16-38.56Q904.93-56.89 911.55-77.68ZM883.20 31.00L883.20 31.00L883.20 31.00Q895.29 31.00 902.10 22.68L902.10 22.68L902.10 22.68Q908.90 14.36 908.90 1.32L908.90 1.32L908.90 1.32Q908.90-5.10 908.05-17.39L908.05-17.39L908.05-17.39Q907.20-29.67 907.01-34.78L907.01-34.78L907.01-34.78Q893.59-11.34 883.57-6.05L883.57-6.05L883.57-6.05Q878.47-3.40 872.80-3.40L872.80-3.40L872.80-3.40Q858.63-3.40 850.88-14.55L850.88-14.55L850.88-14.55Q843.13-25.70 843.13-41.77L843.13-41.77L843.13-41.77Q843.13-63.69 856.83-80.23L856.83-80.23L856.83-80.23Q870.53-96.77 891.61-96.77L891.61-96.77L891.61-96.77Q912.68-96.77 934.23-89.40L934.23-89.40L934.23-89.40Q928.56-69.17 928.56-49.71L928.56-49.71L928.56-49.71Q928.56-40.45 929.88-26.74L929.88-26.74L929.88-26.74Q931.20-13.04 931.20-6.43L931.20-6.43L931.20-6.43Q931.20 16.82 916.46 32.04L916.46 32.04L916.46 32.04Q901.72 47.25 878.66 47.25L878.66 47.25L878.66 47.25Q865.05 47.25 855.32 42.05L855.32 42.05L855.32 42.05Q845.59 36.85 845.59 25.89L845.59 25.89L845.59 25.89Q845.59 19.09 850.69 14.36L850.69 14.36L850.69 14.36Q855.79 9.64 862.78 9.64L862.78 9.64L862.78 9.64Q864.30 9.64 866.56 10.02L866.56 10.02L866.56 10.02Q866.00 12.47 866.00 14.36L866.00 14.36L866.00 14.36Q866.00 21.17 871.10 26.08L871.10 26.08L871.10 26.08Q876.20 31.00 883.20 31.00ZM1037.99-89.02L1037.99-89.02L1037.99-89.02Q1032.88-67.28 1032.88-45.45L1032.88-45.45L1032.88-45.45Q1032.88-23.63 1037.80-2.27L1037.80-2.27L1037.80-2.27Q1030.99 0 1023.81 0L1023.81 0L1023.81 0Q1016.63 0 1013.80-4.25L1013.80-4.25L1013.80-4.25Q1010.96-8.51 1010.96-16.54L1010.96-16.54L1010.96-16.54Q1010.96-24.57 1013.42-38.56L1013.42-38.56L1013.42-38.56Q1000.00-9.83 987.52-2.27L987.52-2.27L987.52-2.27Q981.85 1.13 975.81 1.13L975.81 1.13L975.81 1.13Q961.44 1.13 953.50-9.54L953.50-9.54L953.50-9.54Q945.57-20.22 945.57-36.10L945.57-36.10L945.57-36.10Q945.57-60.29 958.99-78.53L958.99-78.53L958.99-78.53Q972.40-96.77 993.86-96.77L993.86-96.77L993.86-96.77Q1015.31-96.77 1037.99-89.02ZM1013.23-77.68L1013.23-77.68L1013.23-77.68Q1003.21-80.70 996.22-80.70L996.22-80.70L996.22-80.70Q982.04-80.70 975.05-74.47L975.05-74.47L975.05-74.47Q968.62-58.59 968.62-42.15L968.62-42.15L968.62-42.15Q968.62-33.45 971.37-24.57L971.37-24.57L971.37-24.57Q974.11-15.69 979.78-15.69L979.78-15.69L979.78-15.69Q986.39-15.69 996.79-35.15L996.79-35.15L996.79-35.15Q1007.18-54.62 1013.23-77.68ZM1079.00-18.52L1079.00-18.52L1079.00-18.52Q1086.75-15.69 1096.96-15.69L1096.96-15.69L1096.96-15.69Q1107.16-15.69 1114.91-19.66L1114.91-19.66L1114.91-19.66Q1124.17-35.53 1124.17-57.74L1124.17-57.74L1124.17-57.74Q1124.17-79.95 1116.42-79.95L1116.42-79.95L1116.42-79.95Q1106.78-79.95 1094.78-60.48L1094.78-60.48L1094.78-60.48Q1082.78-41.01 1079.00-18.52ZM1079.00-57.27L1079.00-57.27L1079.00-57.27Q1099.03-96.77 1123.42-96.77L1123.42-96.77L1123.42-96.77Q1136.27-96.77 1141.84-86.28L1141.84-86.28L1141.84-86.28Q1147.42-75.79 1147.42-59.72L1147.42-59.72L1147.42-59.72Q1147.42-36.67 1133.81-17.77L1133.81-17.77L1133.81-17.77Q1120.20 1.13 1099.60 1.13L1099.60 1.13L1099.60 1.13Q1087.88 1.13 1078.24-2.65L1078.24-2.65L1078.24-2.65Q1078.62 23.25 1081.46 44.79L1081.46 44.79L1081.46 44.79Q1075.41 47.06 1068.98 47.06L1068.98 47.06L1068.98 47.06Q1062.56 47.06 1058.40 42.81L1058.40 42.81L1058.40 42.81Q1054.24 38.56 1054.24 29.86L1054.24 29.86L1054.24 29.86Q1054.24 21.17 1056.51 0.19L1056.51 0.19L1056.51 0.19Q1058.78-20.79 1058.78-32.70L1058.78-32.70L1058.78-32.70Q1058.78-72.01 1054.62-93.37L1054.62-93.37L1054.62-93.37Q1060.67-95.63 1067.38-95.63L1067.38-95.63L1067.38-95.63Q1074.09-95.63 1077.77-91.76L1077.77-91.76L1077.77-91.76Q1081.46-87.89 1081.46-79.66L1081.46-79.66L1081.46-79.66Q1081.46-71.44 1079.00-57.27ZM1197.32 2.27L1197.32 2.27L1197.32 2.27Q1176.52 2.27 1166.70-9.92L1166.70-9.92L1166.70-9.92Q1156.87-22.11 1156.87-43.94L1156.87-43.94L1156.87-43.94Q1156.87-65.77 1169.91-81.84L1169.91-81.84L1169.91-81.84Q1182.95-97.90 1203.36-97.90L1203.36-97.90L1203.36-97.90Q1245.32-97.90 1245.32-50.65L1245.32-50.65L1245.32-50.65Q1245.32-28.54 1231.71-13.14L1231.71-13.14L1231.71-13.14Q1218.11 2.27 1197.32 2.27ZM1183.71-77.11L1183.71-77.11L1183.71-77.11Q1180.30-66.15 1180.30-55.19L1180.30-55.19L1180.30-55.19Q1180.30-44.23 1181.06-38.18L1181.06-38.18L1181.06-38.18Q1181.82-32.13 1183.90-26.08L1183.90-26.08L1183.90-26.08Q1188.24-13.80 1201.00-13.80L1201.00-13.80L1201.00-13.80Q1213.76-13.80 1217.82-20.60L1217.82-20.60L1217.82-20.60Q1221.88-27.41 1221.88-41.58L1221.88-41.58L1221.88-41.58Q1221.88-81.84 1202.80-81.84L1202.80-81.84L1202.80-81.84Q1191.83-81.84 1183.71-77.11ZM1334.15-29.96L1334.15-29.96L1334.15-29.96Q1327.54-17.01 1317.52-7.94L1317.52-7.94L1317.52-7.94Q1307.50 1.13 1297.48 1.13L1297.48 1.13L1297.48 1.13Q1287.47 1.13 1282.08-5.76L1282.08-5.76L1282.08-5.76Q1276.69-12.66 1274.43-23.53L1274.43-23.53L1274.43-23.53Q1272.16-34.40 1270.36-45.93L1270.36-45.93L1270.36-45.93Q1268.57-57.46 1264.22-68.42L1264.22-68.42L1264.22-68.42Q1259.87-79.38 1252.31-84.86L1252.31-84.86L1252.31-84.86Q1254.77-89.40 1259.68-92.52L1259.68-92.52L1259.68-92.52Q1264.60-95.63 1270.27-95.63L1270.27-95.63L1270.27-95.63Q1279.15-95.63 1284.63-84.20L1284.63-84.20L1284.63-84.20Q1290.11-72.77 1291.72-58.97L1291.72-58.97L1291.72-58.97Q1293.33-45.17 1295.31-32.22L1295.31-32.22L1295.31-32.22Q1297.30-19.28 1299.94-17.39L1299.94-17.39L1299.94-17.39Q1306.37-17.77 1311.19-25.61L1311.19-25.61L1311.19-25.61Q1316.01-33.45 1318.28-44.60L1318.28-44.60L1318.28-44.60Q1322.43-65.02 1322.43-76.55L1322.43-76.55L1322.43-76.55Q1322.43-88.07 1321.30-94.31L1321.30-94.31L1321.30-94.31Q1327.91-95.63 1332.64-95.63L1332.64-95.63L1332.64-95.63Q1348.89-95.63 1348.89-80.14L1348.89-80.14L1348.89-80.14Q1348.89-70.31 1344.83-56.61L1344.83-56.61L1344.83-56.61Q1340.77-42.90 1334.15-29.96Z" fill="url(#editing-shiny-gradient2)"></path></g></g><style>text {
  font-size: 64px;
  font-family: Arial Black;
  dominant-baseline: central;
  text-anchor: middle;
}</style></svg>